<?xml version="1.0" encoding="UTF-8" standalone="no"?>
<svg
   xmlns:dc="http://purl.org/dc/elements/1.1/"
   xmlns:cc="http://creativecommons.org/ns#"
   xmlns:rdf="http://www.w3.org/1999/02/22-rdf-syntax-ns#"
   xmlns:svg="http://www.w3.org/2000/svg"
   xmlns="http://www.w3.org/2000/svg"
   xmlns:sodipodi="http://sodipodi.sourceforge.net/DTD/sodipodi-0.dtd"
   xmlns:inkscape="http://www.inkscape.org/namespaces/inkscape"
   width="32.416012"
   height="53"
   version="1.1"
   id="svg4"
   sodipodi:docname="Kaktovik_digit_13.svg"
   inkscape:version="0.92.5 (2060ec1f9f, 2020-04-08)">
  <defs
     id="defs8" />
  <path
     inkscape:connector-curvature="0"
     id="path4657"
     style="fill:#000000;fill-opacity:1;stroke:#000000;stroke-width:0;stroke-linecap:butt;stroke-linejoin:round;stroke-miterlimit:3.86370325;stroke-dasharray:none;stroke-opacity:1"
     d="m 4,18.121331 c 2.154671,2.344026 5.821342,30.047997 6.91733,30.878667 h 1.625348 l 7.294677,-19.199964 c 0,0 3.703974,17.007984 4.497297,18.255984 1.209336,0.3772 3.514696,0.94398 3.514696,0.94398 -2.947993,-2.56933 -6.349342,-24.339971 -6.349342,-24.339971 l -2.758677,0.113386 -6.198651,19.352015 -4.42269,-21.997344 c 6.198689,-3.061342 20.296025,-5.555981 20.296025,-5.555981 v -3.364007 c 0,0 -21.769361,-6.1599864 -23.205354,-8.8813224 0,1.322646 0,3.477317 1.133329,4.723994 1.852006,0.71864 16.478664,5.6319874 16.478664,5.6319874 0,0 -15.571993,4.421329 -18.822652,3.438652 z" />
</svg>
