<?xml version="1.0" encoding="UTF-8" standalone="no"?>
<svg
   xmlns:dc="http://purl.org/dc/elements/1.1/"
   xmlns:cc="http://creativecommons.org/ns#"
   xmlns:rdf="http://www.w3.org/1999/02/22-rdf-syntax-ns#"
   xmlns:svg="http://www.w3.org/2000/svg"
   xmlns="http://www.w3.org/2000/svg"
   xmlns:sodipodi="http://sodipodi.sourceforge.net/DTD/sodipodi-0.dtd"
   xmlns:inkscape="http://www.inkscape.org/namespaces/inkscape"
   width="32.419476"
   height="53"
   version="1.1"
   id="svg4"
   sodipodi:docname="Kaktovik_digit_18.svg"
   inkscape:version="0.92.5 (2060ec1f9f, 2020-04-08)">
  <defs
     id="defs8" />
  <path
     inkscape:connector-curvature="0"
     id="path4681"
     style="fill:#000000;fill-opacity:1;stroke:#000000;stroke-width:0;stroke-linecap:butt;stroke-linejoin:round;stroke-miterlimit:3.86370325;stroke-dasharray:none;stroke-opacity:1"
     d="m 4,19.633334 c 2.192013,2.30536 5.292019,28.572019 6.388006,29.366665 h 1.625348 l 7.294673,-19.238665 c 0,0 3.70398,17.083994 4.4973,18.293329 1.20934,0.416013 3.5147,0.945336 3.5147,0.945336 -2.948,-2.570646 -6.34934,-24.339969 -6.34934,-24.339969 L 18.212007,24.773416 12.013354,44.161409 7.742677,23.148105 C 13.6,20.653428 25.733337,18.688074 25.733337,18.688074 V 15.89077 L 10.804019,11.430738 26.261337,8.2947502 c 2.15468,-1.248 2.15468,-4.082646 2.15468,-4.082646 -1.85201,2.494639 -22.034688,5.1786331 -22.677321,6.4253108 v 1.889348 l 13.833331,4.536001 c 0,0 -11.754666,2.985335 -15.572027,2.570645 z" />
</svg>
